<svg width="23" height="23" viewBox="0 0 23 23" fill="none" xmlns="http://www.w3.org/2000/svg">
<g clip-path="url(#clip0_256_83)">
<path d="M22.634 4.8537L21.8853 4.10499C21.65 3.86954 21.3364 3.74002 21.0015 3.74002C20.6666 3.74002 20.3528 3.86954 20.1175 4.10499L9.59707 14.6252L3.02406 8.05203C2.7888 7.81696 2.47494 7.68725 2.14007 7.68725C1.80539 7.68725 1.49171 7.81696 1.25626 8.05203L0.507363 8.80056C0.271916 9.03637 0.142578 9.35043 0.142578 9.68492C0.142578 10.0196 0.271916 10.3335 0.507363 10.5689L7.92869 17.9899C7.93854 18.0038 7.94894 18.0168 7.96102 18.0287L8.70992 18.7652C8.94518 18.9997 9.25905 19.1169 9.59652 19.1169H9.60042C9.93547 19.1169 10.2493 18.9997 10.4842 18.7652L11.2333 18.0222C11.2454 18.0103 11.2556 18.0005 11.2617 17.9904L22.6338 6.61946C23.1216 6.13277 23.1216 5.34095 22.634 4.8537Z" fill="white"/>
</g>
<defs>
<clipPath id="clip0_256_83">
<rect width="22.8571" height="22.8571" fill="white" transform="translate(0.142578)"/>
</clipPath>
</defs>
</svg>
