<svg width="23" height="23" viewBox="0 0 23 23" fill="none" xmlns="http://www.w3.org/2000/svg">
<g clip-path="url(#clip0_256_29)">
<path d="M22.7119 10.984C22.5077 10.7047 17.6424 4.14447 11.4285 4.14447C5.21456 4.14447 0.349019 10.7047 0.145045 10.9838C-0.0483483 11.2488 -0.0483483 11.6082 0.145045 11.8732C0.349019 12.1525 5.21456 18.7128 11.4285 18.7128C17.6424 18.7128 22.5077 12.1525 22.7119 11.8734C22.9055 11.6085 22.9055 11.2488 22.7119 10.984ZM11.4285 17.2057C6.85126 17.2057 2.88693 12.8515 1.7134 11.4281C2.88541 10.0034 6.84144 5.65153 11.4285 5.65153C16.0054 5.65153 19.9695 10.0049 21.1435 11.4291C19.9715 12.8538 16.0155 17.2057 11.4285 17.2057Z" fill="white"/>
<path d="M11.4284 6.90729C8.93549 6.90729 6.90723 8.93555 6.90723 11.4285C6.90723 13.9215 8.93549 15.9497 11.4284 15.9497C13.9214 15.9497 15.9497 13.9215 15.9497 11.4285C15.9497 8.93555 13.9214 6.90729 11.4284 6.90729ZM11.4284 14.4426C9.76638 14.4426 8.41433 13.0905 8.41433 11.4285C8.41433 9.76649 9.76643 8.41439 11.4284 8.41439C13.0905 8.41439 14.4426 9.76649 14.4426 11.4285C14.4426 13.0905 13.0905 14.4426 11.4284 14.4426Z" fill="white"/>
</g>
<defs>
<clipPath id="clip0_256_29">
<rect width="22.8571" height="22.8571" fill="white"/>
</clipPath>
</defs>
</svg>
