<svg width="23" height="23" viewBox="0 0 23 23" fill="none" xmlns="http://www.w3.org/2000/svg">
<path d="M17.0548 5.20361L17.7301 4.36368C18.6556 3.2156 18.468 1.53822 17.3099 0.618765L17.2674 0.583974C16.1118 -0.33548 14.4234 -0.149104 13.4979 1.00146L12.8251 1.8389L17.0548 5.20361Z" fill="white"/>
<path d="M12.9451 12.2633C12.9676 12.4671 13.0702 12.6609 13.2428 12.8001C13.5904 13.0759 14.0982 13.0213 14.3758 12.6758L19.0157 6.91061C19.2983 6.56023 19.2358 6.04583 18.8731 5.77248C18.5229 5.50907 18.0202 5.58362 17.7451 5.92406L17.2923 6.48567L16.5169 5.86939L16.5194 5.86691L12.2923 2.49972L1.47675 15.9312L5.70641 19.2959L15.5139 7.11935L16.2893 7.73564L13.1177 11.6744C12.9776 11.8458 12.9226 12.0596 12.9451 12.2633Z" fill="white"/>
<path d="M5.00355 19.9173L1.01902 16.7464C0.953984 16.9675 0.921468 17.1614 0.921468 17.1614L0.00850154 21.5052C-0.0565317 21.8183 0.263632 22.0742 0.556281 21.94L4.62336 20.1011C4.62086 20.1011 4.80095 20.0266 5.00355 19.9173Z" fill="white"/>
<path d="M22.2774 20.6952C22.2424 20.6952 22.2099 20.6977 22.1749 20.7027L16.0292 21.4929C15.7141 21.5327 15.494 21.1897 15.664 20.9214C15.7566 20.7797 15.8466 20.6356 15.9367 20.4915C16.1743 20.1088 15.8566 19.5993 15.4164 19.5993C15.3864 19.5993 15.3564 19.6018 15.3239 19.6068L3.68041 21.3463C3.38276 21.3911 3.18266 21.642 3.20767 21.9427C3.21768 22.0769 3.27271 22.2037 3.36025 22.2981C3.4628 22.4099 3.60538 22.472 3.76046 22.472C3.79047 22.472 3.82049 22.4695 3.853 22.4646L13.4529 21.0307C13.7806 20.981 14.0057 21.3488 13.8131 21.6172C13.7506 21.7017 13.688 21.7887 13.6255 21.8731C13.4529 22.1067 13.4929 22.4969 13.693 22.6982C13.7956 22.8025 13.9256 22.8572 14.0632 22.8572C14.0783 22.8572 14.0957 22.8572 14.1107 22.8547H14.1158L22.4025 21.806H22.4075C22.5501 21.7837 22.6751 21.7017 22.7577 21.5749C22.8478 21.4358 22.8802 21.2643 22.8403 21.1102C22.7752 20.8592 22.5551 20.6952 22.2774 20.6952Z" fill="white"/>
</svg>
