<svg width="23" height="23" viewBox="0 0 23 23" fill="none" xmlns="http://www.w3.org/2000/svg">
<g clip-path="url(#clip0_256_87)">
<path d="M18.2074 14.1592C17.7395 13.672 17.175 13.4115 16.5768 13.4115C15.9835 13.4115 15.4142 13.6671 14.927 14.1544L13.4025 15.674C13.2771 15.6064 13.1517 15.5437 13.0311 15.481C12.8574 15.3942 12.6934 15.3122 12.5535 15.2253C11.1255 14.3184 9.82783 13.1365 8.5832 11.6072C7.98018 10.845 7.57495 10.2034 7.28068 9.55212C7.67626 9.19031 8.04289 8.81403 8.39988 8.45222C8.53496 8.31714 8.67004 8.17724 8.80511 8.04216C9.81818 7.02909 9.81818 5.71692 8.80511 4.70385L7.48812 3.38685C7.33857 3.2373 7.18419 3.08293 7.03947 2.92856C6.75002 2.62946 6.4461 2.32071 6.13253 2.03126C5.66459 1.56814 5.10498 1.32211 4.51644 1.32211C3.92789 1.32211 3.35864 1.56814 2.87622 2.03126C2.8714 2.03609 2.8714 2.03609 2.86657 2.04091L1.22636 3.6956C0.608869 4.31309 0.256705 5.06566 0.179519 5.93883C0.0637389 7.34749 0.478616 8.65966 0.797011 9.51836C1.57852 11.6265 2.74597 13.5803 4.48749 15.674C6.60047 18.197 9.1428 20.1894 12.0469 21.5932C13.1565 22.1191 14.6375 22.7414 16.2922 22.8475C16.3935 22.8523 16.4996 22.8571 16.5961 22.8571C17.7105 22.8571 18.6464 22.4567 19.3797 21.6608C19.3845 21.6511 19.3941 21.6463 19.399 21.6366C19.6498 21.3327 19.9393 21.0577 20.2432 20.7635C20.4506 20.5657 20.6629 20.3582 20.8703 20.1411C21.3479 19.6443 21.5988 19.0654 21.5988 18.472C21.5988 17.8738 21.3431 17.2997 20.8559 16.8173L18.2074 14.1592ZM19.9344 19.239C19.9296 19.239 19.9296 19.2439 19.9344 19.239C19.7463 19.4416 19.5533 19.625 19.3459 19.8276C19.0323 20.1267 18.7139 20.4402 18.4148 20.7924C17.9276 21.3134 17.3535 21.5595 16.601 21.5595C16.5286 21.5595 16.4514 21.5595 16.379 21.5546C14.9463 21.463 13.6148 20.9034 12.6162 20.4258C9.88572 19.104 7.48812 17.2274 5.49574 14.849C3.8507 12.8663 2.75079 11.0331 2.02235 9.06489C1.5737 7.86367 1.40968 6.92778 1.48204 6.04496C1.53028 5.48054 1.74737 5.01259 2.14777 4.61219L3.79281 2.96715C4.0292 2.74524 4.28005 2.62464 4.52608 2.62464C4.83001 2.62464 5.07604 2.80795 5.23041 2.96233C5.23524 2.96715 5.24006 2.97197 5.24488 2.9768C5.53916 3.25178 5.81896 3.5364 6.11323 3.84032C6.26278 3.9947 6.41715 4.14907 6.57153 4.30827L7.88852 5.62526C8.39988 6.13662 8.39988 6.60939 7.88852 7.12075C7.74862 7.26065 7.61354 7.40055 7.47364 7.53563C7.06841 7.9505 6.68248 8.33644 6.26278 8.71272C6.25313 8.72237 6.24348 8.72719 6.23866 8.73684C5.82378 9.15172 5.90097 9.55695 5.9878 9.83193C5.99263 9.8464 5.99745 9.86087 6.00228 9.87534C6.34479 10.7051 6.82721 11.4866 7.56048 12.4177L7.5653 12.4225C8.89677 14.0627 10.3006 15.3411 11.8492 16.3204C12.0469 16.4458 12.2496 16.5472 12.4425 16.6436C12.6162 16.7305 12.7802 16.8125 12.9201 16.8993C12.9394 16.909 12.9587 16.9234 12.978 16.9331C13.142 17.0151 13.2964 17.0537 13.4556 17.0537C13.856 17.0537 14.1069 16.8028 14.1889 16.7208L15.8387 15.071C16.0028 14.9069 16.2633 14.7091 16.5672 14.7091C16.8663 14.7091 17.1123 14.8973 17.2619 15.0613C17.2667 15.0661 17.2667 15.0661 17.2715 15.071L19.9296 17.7291C20.4265 18.2211 20.4265 18.7277 19.9344 19.239Z" fill="white"/>
<path d="M12.4955 5.43709C13.7595 5.64935 14.9076 6.24754 15.8242 7.16413C16.7408 8.08072 17.3342 9.22887 17.5512 10.4928C17.6043 10.8112 17.8793 11.0331 18.1929 11.0331C18.2315 11.0331 18.2652 11.0283 18.3038 11.0235C18.6608 10.9656 18.8972 10.6279 18.8393 10.2709C18.5788 8.74163 17.8552 7.34745 16.7504 6.24272C15.6457 5.13799 14.2515 4.41437 12.7223 4.15386C12.3653 4.09597 12.0324 4.33235 11.9697 4.68452C11.907 5.03668 12.1386 5.3792 12.4955 5.43709Z" fill="white"/>
<path d="M22.9738 10.0827C22.5445 7.5645 21.3577 5.27302 19.5342 3.44949C17.7107 1.62596 15.4192 0.439218 12.901 0.00986779C12.5488 -0.0528462 12.216 0.188362 12.1532 0.540525C12.0954 0.897513 12.3317 1.23038 12.6887 1.29309C14.9368 1.6742 16.9871 2.74034 18.6176 4.36608C20.2482 5.99665 21.3095 8.04691 21.6906 10.295C21.7437 10.6134 22.0186 10.8353 22.3322 10.8353C22.3708 10.8353 22.4046 10.8305 22.4432 10.8256C22.7953 10.7726 23.0365 10.4349 22.9738 10.0827Z" fill="white"/>
</g>
<defs>
<clipPath id="clip0_256_87">
<rect width="22.8571" height="22.8571" fill="white" transform="translate(0.143066)"/>
</clipPath>
</defs>
</svg>
